<svg xmlns="http://www.w3.org/2000/svg" viewBox="0 0 720 980" role="img" aria-labelledby="title desc"><title id="title">ナビゲーター 都</title><desc id="desc">地域の暮らしサービスを案内する60代から70代の女性ナビゲーター都</desc><defs><linearGradient id="bg" x1="0" y1="0" x2="1" y2="1"><stop stop-color="#f8f1e7"/><stop offset="1" stop-color="#e8f3ed"/></linearGradient><linearGradient id="wear" x1="0" y1="0" x2="0" y2="1"><stop stop-color="#af8a68"/><stop offset="1" stop-color="#8e6b52"/></linearGradient><filter id="shadow" x="-30%" y="-30%" width="160%" height="160%"><feDropShadow dx="0" dy="18" stdDeviation="18" flood-color="#173f34" flood-opacity=".14"/></filter></defs><rect width="720" height="980" rx="48" fill="url(#bg)"/><circle cx="585" cy="155" r="110" fill="#efd79f" opacity=".48"/><circle cx="126" cy="805" r="150" fill="#fff" opacity=".52"/><g filter="url(#shadow)"><path d="M150 900c16-192 74-310 210-310 138 0 196 118 210 310z" fill="url(#wear)"/><rect x="280" y="540" width="160" height="110" rx="52" fill="#edc5a9"/><ellipse cx="360" cy="365" rx="174" ry="205" fill="#f2cdb2"/><path d="M188 365c2-148 66-236 174-236 112 0 180 82 171 222-39-6-78-28-113-66-42 46-105 75-187 80-17 1-32 1-45 0z" fill="#c7c3bf"/><path d="M492 238c50 18 73 60 60 110-6 23-20 44-39 58 11-51 5-106-21-168z" fill="#b5b0ac"/><path d="M219 342c-25 7-38 29-34 58 4 29 24 49 47 46l-5-99z" fill="#ecc0a3"/><path d="M501 342c25 7 38 29 34 58-4 29-24 49-47 46l5-99z" fill="#ecc0a3"/><ellipse cx="300" cy="385" rx="10" ry="12" fill="#322a27"/><ellipse cx="420" cy="385" rx="10" ry="12" fill="#322a27"/><path d="M314 477c28 24 62 24 92 0" fill="none" stroke="#a9655d" stroke-width="11" stroke-linecap="round"/><path d="M272 347c27-14 53-14 78-1" fill="none" stroke="#8d8884" stroke-width="11" stroke-linecap="round"/><path d="M391 345c25-12 50-10 72 5" fill="none" stroke="#8d8884" stroke-width="11" stroke-linecap="round"/><path d="M354 404c-6 29-4 53 8 65 13 0 25-3 35-9" fill="none" stroke="#d9a58a" stroke-width="8" stroke-linecap="round"/><path d="M256 435c18 12 36 18 54 17" fill="none" stroke="#d9a58a" stroke-width="4" stroke-linecap="round" opacity=".5"/><path d="M409 452c19 0 36-6 52-18" fill="none" stroke="#d9a58a" stroke-width="4" stroke-linecap="round" opacity=".5"/><path d="M245 656l115 94 115-94" fill="#fff" opacity=".96"/><circle cx="360" cy="806" r="65" fill="#fff" opacity=".17"/><text x="360" y="833" text-anchor="middle" font-family="-apple-system,BlinkMacSystemFont,'Yu Gothic',sans-serif" font-size="78" font-weight="900" fill="#fff">都</text></g></svg>