<svg xmlns="http://www.w3.org/2000/svg" viewBox="0 0 520 720"><defs><linearGradient id="a" x1="0" y1="0" x2="1" y2="1"><stop stop-color="#edf5f0"/><stop offset="1" stop-color="#dceae2"/></linearGradient><linearGradient id="b" x1="0" y1="0" x2="0" y2="1"><stop stop-color="#2c7059"/><stop offset="1" stop-color="#173f34"/></linearGradient></defs><rect width="520" height="720" rx="32" fill="url(#a)"/><circle cx="420" cy="110" r="74" fill="#f0d6a4" opacity=".5"/><circle cx="92" cy="610" r="104" fill="#fff" opacity=".55"/><g><path d="M90 674c10-145 54-230 170-230s160 85 170 230z" fill="url(#b)"/><rect x="205" y="398" width="110" height="88" rx="46" fill="#efc3a7"/><ellipse cx="260" cy="280" rx="126" ry="153" fill="#f4cbb0"/><path d="M134 278c-5-107 42-174 126-174 89 0 135 62 126 167-34-18-62-49-78-90-34 51-89 83-174 97z" fill="#342b27"/><ellipse cx="217" cy="292" rx="8" ry="9" fill="#2d2825"/><ellipse cx="303" cy="292" rx="8" ry="9" fill="#2d2825"/><path d="M228 361c20 18 43 18 64 0" fill="none" stroke="#a95f59" stroke-width="9" stroke-linecap="round"/><path d="M198 258c18-11 36-12 54-3" fill="none" stroke="#342b27" stroke-width="9" stroke-linecap="round"/><path d="M279 255c18-8 36-6 54 5" fill="none" stroke="#342b27" stroke-width="9" stroke-linecap="round"/><path d="M185 480l75 66 75-66" fill="#fff" opacity=".96"/><circle cx="260" cy="586" r="48" fill="#fff" opacity=".15"/><text x="260" y="603" text-anchor="middle" font-family="-apple-system,BlinkMacSystemFont,'Yu Gothic',sans-serif" font-size="56" font-weight="900" fill="#fff">城</text></g><g transform="translate(34 32)"><rect width="144" height="42" rx="21" fill="#fff" opacity=".94"/><text x="72" y="28" text-anchor="middle" font-family="-apple-system,BlinkMacSystemFont,'Yu Gothic',sans-serif" font-size="16" font-weight="800" fill="#17654d">NAVIGATOR 城</text></g></svg>